<?xml version="1.0" encoding="UTF-8"?>
<svg width="131px" height="33px" viewBox="0 0 131 33" version="1.1" xmlns="http://www.w3.org/2000/svg" xmlns:xlink="http://www.w3.org/1999/xlink">
    <!-- Generator: Sketch 43.2 (39069) - http://www.bohemiancoding.com/sketch -->
    <title>sfa-logo</title>
    <desc>Created with Sketch.</desc>
    <defs></defs>
    <g id="Page-1" stroke="none" stroke-width="1" fill="none" fill-rule="evenodd">
        <g id="Style-Guide" transform="translate(-42.000000, -143.000000)">
            <g id="sfa-logo" transform="translate(43.000000, 143.000000)">
                <path d="M56.344,25.368 C56.5786678,25.8960026 56.893998,26.4313306 57.29,26.974 C57.686002,27.5166694 58.1699971,28.0079978 58.742,28.448 C59.3140029,28.8880022 59.9813295,29.2473319 60.744,29.526 C61.5066705,29.8046681 62.3573286,29.944 63.296,29.944 C64.2640048,29.944 65.1366628,29.775335 65.914,29.438 C66.6913372,29.100665 67.3513306,28.6460029 67.894,28.074 C68.4366694,27.5019971 68.8546652,26.8273372 69.148,26.05 C69.4413348,25.2726628 69.588,24.4440044 69.588,23.564 C69.588,22.2146599 69.2433368,21.144004 68.554,20.352 C67.8646632,19.559996 67.0066718,18.9000026 65.98,18.372 C64.9533282,17.8439974 63.8460059,17.3600022 62.658,16.92 C61.4699941,16.4799978 60.3626718,15.9300033 59.336,15.27 C58.3093282,14.6099967 57.4513368,13.7666718 56.762,12.74 C56.0726632,11.7133282 55.728,10.3346753 55.728,8.604 C55.728,7.37199384 55.9479978,6.25000506 56.388,5.238 C56.8280022,4.22599494 57.4659958,3.353337 58.302,2.62 C59.1380042,1.886663 60.1426608,1.31466872 61.316,0.904 C62.4893392,0.49333128 63.809326,0.288 65.276,0.288 C66.684007,0.288 67.9013282,0.45666498 68.928,0.794 C69.9546718,1.13133502 70.9079956,1.65199648 71.788,2.356 C71.5239987,2.85466916 71.3040009,3.38266388 71.128,3.94 C70.9519991,4.49733612 70.7760009,5.20132908 70.6,6.052 L70.072,6.052 C69.9253326,5.64133128 69.7273346,5.19400242 69.478,4.71 C69.2286654,4.22599758 68.8913355,3.77866872 68.466,3.368 C68.0406645,2.95733128 67.5346696,2.61266806 66.948,2.334 C66.3613304,2.05533194 65.6573374,1.916 64.836,1.916 C64.0146626,1.916 63.2593368,2.04799868 62.57,2.312 C61.8806632,2.57600132 61.2793359,2.94999758 60.766,3.434 C60.2526641,3.91800242 59.8566681,4.49732996 59.578,5.172 C59.2993319,5.84667004 59.16,6.57999604 59.16,7.372 C59.16,8.75067356 59.5046632,9.83599604 60.194,10.628 C60.8833368,11.420004 61.7413282,12.0873306 62.768,12.63 C63.7946718,13.1726694 64.9019941,13.6566645 66.09,14.082 C67.2780059,14.5073355 68.3853282,15.0279969 69.412,15.644 C70.4386718,16.2600031 71.2966632,17.0519952 71.986,18.02 C72.6753368,18.9880048 73.02,20.2786586 73.02,21.892 C73.02,23.2413401 72.7780024,24.5173273 72.294,25.72 C71.8099976,26.9226727 71.1060046,27.9713289 70.182,28.866 C69.2579954,29.7606711 68.1286733,30.4499976 66.794,30.934 C65.4593267,31.4180024 63.9413418,31.66 62.24,31.66 C60.4213242,31.66 58.947339,31.4180024 57.818,30.934 C56.688661,30.4499976 55.7426705,29.9000031 54.98,29.284 C55.2440013,28.60933 55.4273328,28.0006694 55.53,27.458 C55.6326672,26.9153306 55.7279996,26.2186709 55.816,25.368 L56.344,25.368 Z M81.312,12.256 C81.312,10.3199903 81.2753337,8.42067598 81.202,6.558 C81.1286663,4.69532402 81.0480004,2.79600968 80.96,0.86 C82.2800066,0.91866696 83.5926601,0.96999978 84.898,1.014 C86.2033399,1.05800022 87.5159934,1.08 88.836,1.08 C90.1560066,1.08 91.4906599,1.05800022 92.84,1.014 C94.1893401,0.96999978 95.6559921,0.91866696 97.24,0.86 C97.1519996,1.3000022 97.108,1.7399978 97.108,2.18 C97.108,2.6200022 97.1519996,3.0599978 97.24,3.5 C96.447996,3.41199956 95.4946722,3.3313337 94.38,3.258 C93.2653278,3.1846663 92.1286725,3.12600022 90.97,3.082 C89.8113275,3.03799978 88.696672,3.00133348 87.626,2.972 C86.555328,2.94266652 85.6680035,2.928 84.964,2.928 C84.9346665,3.9546718 84.9126667,4.93732864 84.898,5.876 C84.8833333,6.81467136 84.876,7.75332864 84.876,8.692 C84.876,9.7186718 84.8833333,10.6646623 84.898,11.53 C84.9126667,12.3953377 84.92,13.2973286 84.92,14.236 C86.8560097,14.236 88.7699905,14.206667 90.662,14.148 C92.5540095,14.089333 94.4239908,13.9720009 96.272,13.796 C96.1546661,14.2360022 96.096,14.6759978 96.096,15.116 C96.096,15.5560022 96.1546661,15.9959978 96.272,16.436 C95.538663,16.3479996 94.7100046,16.2820002 93.786,16.238 C92.8619954,16.1939998 91.9013383,16.1573335 90.904,16.128 C89.9066617,16.0986665 88.8946718,16.084 87.868,16.084 L84.92,16.084 L84.92,19.824 C84.92,21.7600097 84.9566663,23.6666573 85.03,25.544 C85.1033337,27.4213427 85.1839996,29.2693242 85.272,31.088 C84.59733,31.029333 83.8786705,31 83.116,31 C82.3533295,31 81.63467,31.029333 80.96,31.088 C81.0480004,29.2693242 81.1286663,27.4213427 81.202,25.544 C81.2753337,23.6666573 81.312,21.7600097 81.312,19.824 L81.312,12.256 Z M110.108,17.404 C110.87067,17.404 111.662663,17.4186665 112.484,17.448 C113.305337,17.4773335 114.09733,17.492 114.86,17.492 C115.681337,17.492 116.502663,17.4846667 117.324,17.47 C118.145337,17.4553333 118.966663,17.4333335 119.788,17.404 L114.904,6.228 L110.108,17.404 Z M129.6,31.088 C129.189331,31.029333 128.800669,31 128.434,31 L126.102,31 C125.735332,31 125.346669,31.029333 124.936,31.088 C124.730666,30.41333 124.452002,29.5993381 124.1,28.646 C123.747998,27.6926619 123.359335,26.6953385 122.934,25.654 C122.508665,24.6126615 122.076002,23.556672 121.636,22.486 C121.195998,21.415328 120.785335,20.3960048 120.404,19.428 C119.465329,19.3986665 118.512005,19.3766667 117.544,19.362 C116.575995,19.3473333 115.608005,19.34 114.64,19.34 C113.730662,19.34 112.836004,19.3473333 111.956,19.362 C111.075996,19.3766667 110.181338,19.3986665 109.272,19.428 C108.333329,21.7160114 107.48267,23.8939897 106.72,25.962 C105.95733,28.0300103 105.385335,29.7386599 105.004,31.088 C104.505331,31.029333 103.96267,31 103.376,31 C102.78933,31 102.246669,31.029333 101.748,31.088 C104.124012,25.954641 106.441322,20.850692 108.7,15.776 C110.958678,10.701308 113.231989,5.53869292 115.52,0.288 L116.356,0.288 C117.060004,1.98934184 117.822663,3.8299901 118.644,5.81 C119.465337,7.7900099 120.301329,9.79198988 121.152,11.816 C122.002671,13.8400101 122.853329,15.8493234 123.704,17.844 C124.554671,19.8386766 125.353996,21.6939914 126.102,23.41 C126.850004,25.1260086 127.524664,26.6586599 128.126,28.008 C128.727336,29.3573401 129.218665,30.3839965 129.6,31.088 Z" id="SFA" fill="#004D76"></path>
                <circle id="Oval" stroke="#4BAE44" cx="33" cy="17" r="9"></circle>
                <circle id="Oval" stroke="#4BAE44" cx="33" cy="17" r="11"></circle>
                <circle id="Oval" stroke="#4BAE44" cx="33" cy="17" r="13"></circle>
                <circle id="Oval" stroke="#4BAE44" cx="33" cy="17" r="15"></circle>
                <circle id="Oval" stroke="#0084CB" cx="15" cy="17" r="9"></circle>
                <circle id="Oval" stroke="#0084CB" cx="15" cy="17" r="11"></circle>
                <circle id="Oval" stroke="#0084CB" cx="15" cy="17" r="13"></circle>
                <circle id="Oval" stroke="#0084CB" cx="15" cy="17" r="15"></circle>
            </g>
        </g>
    </g>
</svg>